<svg xmlns="http://www.w3.org/2000/svg" width="28" height="28" viewBox="0 0 28 28" fill="none">
  <g clip-path="url(#clip0_81_8477)">
    <path d="M11.2153 16.1653L16.1643 11.2163L16.7829 11.8349L11.8339 16.7839L11.2153 16.1653ZM14.8225 14.617C14.6392 14.8005 14.5144 15.0343 14.4638 15.2887C14.4133 15.5432 14.4393 15.8069 14.5385 16.0466C14.6377 16.2863 14.8058 16.4912 15.0214 16.6354C15.2371 16.7797 15.4906 16.8568 15.75 16.857C16.0094 16.8568 16.263 16.7797 16.4786 16.6354C16.6942 16.4912 16.8623 16.2863 16.9615 16.0466C17.0608 15.8069 17.0867 15.5432 17.0362 15.2887C16.9856 15.0343 16.8608 14.8005 16.6775 14.617C16.1831 14.1226 15.3169 14.1226 14.8225 14.617ZM16.0606 15.8551C15.8944 16.0214 15.6056 16.0214 15.4438 15.8551C15.3827 15.794 15.3412 15.7161 15.3245 15.6314C15.3078 15.5467 15.3166 15.4589 15.3499 15.3792C15.3832 15.2995 15.4394 15.2315 15.5114 15.1838C15.5834 15.1361 15.668 15.1109 15.7544 15.1114C15.8408 15.1109 15.9253 15.1361 15.9973 15.1838C16.0694 15.2315 16.1256 15.2995 16.1589 15.3792C16.1921 15.4589 16.201 15.5467 16.1843 15.6314C16.1676 15.7161 16.1261 15.794 16.065 15.8551H16.0606ZM11.3225 11.5239C11.1392 11.7074 11.0144 11.9412 10.9638 12.1956C10.9133 12.4501 10.9393 12.7138 11.0385 12.9535C11.1377 13.1932 11.3058 13.3981 11.5214 13.5423C11.7371 13.6865 11.9906 13.7636 12.25 13.7639C12.5094 13.7636 12.763 13.6865 12.9786 13.5423C13.1942 13.3981 13.3623 13.1932 13.4615 12.9535C13.5608 12.7138 13.5867 12.4501 13.5362 12.1956C13.4856 11.9412 13.3608 11.7074 13.1775 11.5239C12.6656 11.012 11.8169 11.0295 11.3225 11.5239ZM12.5606 12.762C12.3944 12.9282 12.1056 12.9282 11.9438 12.762C11.8827 12.7009 11.8412 12.623 11.8245 12.5383C11.8078 12.4535 11.8166 12.3657 11.8499 12.286C11.8832 12.2063 11.9394 12.1383 12.0114 12.0906C12.0834 12.043 12.168 12.0178 12.2544 12.0182C12.3408 12.0178 12.4253 12.043 12.4973 12.0906C12.5694 12.1383 12.6256 12.2063 12.6589 12.286C12.6921 12.3657 12.701 12.4535 12.6843 12.5383C12.6676 12.623 12.6261 12.7009 12.565 12.762H12.5606Z" fill="#333333"/>
    <path d="M24.5 6.12527V25.8128H25.375V6.56277H27.125C27.2082 6.56291 27.2897 6.53931 27.36 6.49476C27.4302 6.4502 27.4863 6.38653 27.5217 6.31121C27.5571 6.23589 27.5702 6.15205 27.5596 6.06953C27.549 5.987 27.5151 5.90921 27.4618 5.84527L23.0868 0.595273C22.9206 0.394023 22.5793 0.394023 22.4131 0.595273L18.0381 5.84527C17.9848 5.90921 17.9509 5.987 17.9403 6.06953C17.9297 6.15205 17.9429 6.23589 17.9782 6.31121C18.0136 6.38653 18.0697 6.4502 18.14 6.49476C18.2102 6.53931 18.2918 6.56291 18.375 6.56277H20.125V14.0003C20.125 17.3778 17.3775 20.1253 14 20.1253C12.3025 20.1253 10.6662 19.4121 9.50683 18.1653L8.86371 18.7603C10.185 20.1821 12.0575 21.0003 13.9956 21.0003C17.8543 21.0003 20.9956 17.859 20.9956 14.0003V6.12527C20.9956 5.88465 20.7987 5.68777 20.5581 5.68777H19.3068L22.7456 1.55777L26.1843 5.68777H24.9331C24.6925 5.68777 24.4956 5.88465 24.4956 6.12527H24.5Z" fill="#333333"/>
    <path d="M3.49998 21.875V2.1875H2.62498V21.4375H0.874979C0.791774 21.4374 0.710255 21.461 0.639985 21.5055C0.569715 21.5501 0.513608 21.6137 0.478246 21.6891C0.442883 21.7644 0.429732 21.8482 0.440334 21.9307C0.450936 22.0133 0.484853 22.0911 0.538104 22.155L4.9131 27.405C4.99623 27.5056 5.11873 27.5625 5.24998 27.5625C5.38123 27.5625 5.50373 27.5056 5.58685 27.405L9.96185 22.155C10.0151 22.0911 10.049 22.0133 10.0596 21.9307C10.0702 21.8482 10.0571 21.7644 10.0217 21.6891C9.98635 21.6137 9.93024 21.5501 9.85997 21.5055C9.7897 21.461 9.70819 21.4374 9.62498 21.4375H7.87498V14C7.87498 10.6225 10.6225 7.875 14 7.875C15.6975 7.875 17.3337 8.58812 18.4931 9.835L19.1362 9.24C17.815 7.81813 15.9425 7 14.0044 7C10.1456 7 7.00435 10.1413 7.00435 14V21.875C7.00435 22.1156 7.20123 22.3125 7.44185 22.3125H8.69311L5.25435 26.4425L1.8156 22.3125H3.06685C3.30748 22.3125 3.50435 22.1156 3.50435 21.875H3.49998Z" fill="#333333"/>
  </g>
  <defs>
    <clipPath id="clip0_81_8477">
      <rect width="28" height="28" fill="white"/>
    </clipPath>
  </defs>
</svg>