<svg xmlns="http://www.w3.org/2000/svg" width="28" height="28" viewBox="0 0 28 28" fill="none">
  <path d="M19.8333 25.667H8.16667C3.5 25.667 2.33333 24.5003 2.33333 19.8337V17.5003C2.33333 12.8337 3.5 11.667 8.16667 11.667H19.8333C24.5 11.667 25.6667 12.8337 25.6667 17.5003V19.8337C25.6667 24.5003 24.5 25.667 19.8333 25.667Z" stroke="#333333" stroke-width="1.5" stroke-linecap="round" stroke-linejoin="round"/>
  <path d="M7 11.6663V9.33301C7 5.47134 8.16667 2.33301 14 2.33301C19.25 2.33301 21 4.66634 21 8.16634" stroke="#333333" stroke-width="1.5" stroke-linecap="round" stroke-linejoin="round"/>
  <path d="M14 21.5833C15.6108 21.5833 16.9167 20.2775 16.9167 18.6667C16.9167 17.0558 15.6108 15.75 14 15.75C12.3892 15.75 11.0833 17.0558 11.0833 18.6667C11.0833 20.2775 12.3892 21.5833 14 21.5833Z" stroke="#333333" stroke-width="1.5" stroke-linecap="round" stroke-linejoin="round"/>
</svg>