<svg xmlns="http://www.w3.org/2000/svg" width="28" height="28" viewBox="0 0 28 28" fill="none">
  <g clip-path="url(#clip0_81_8485)">
    <path d="M14.0001 28C11.7908 27.9998 9.61293 27.4767 7.64453 26.4735C5.67613 25.4703 3.97309 24.0155 2.67465 22.228C1.37622 20.4405 0.51925 18.3711 0.173811 16.189C-0.171629 14.0069 0.00426936 11.774 0.687124 9.67285C1.36998 7.57173 2.5404 5.66205 4.1027 4.09993C5.66501 2.53781 7.57483 1.36761 9.67603 0.685C11.7772 0.00239123 14.0102 -0.173245 16.1922 0.17245C18.3743 0.518145 20.4436 1.37536 22.2309 2.674C22.3239 2.74164 22.4026 2.82693 22.4625 2.92498C22.5225 3.02303 22.5625 3.13193 22.5804 3.24547C22.5983 3.359 22.5936 3.47495 22.5667 3.58668C22.5398 3.69841 22.4911 3.80375 22.4234 3.89667C22.3558 3.98959 22.2705 4.06828 22.1725 4.12824C22.0744 4.1882 21.9655 4.22827 21.852 4.24614C21.7384 4.26402 21.6225 4.25935 21.5108 4.23242C21.399 4.20549 21.2937 4.15681 21.2008 4.08917C18.7666 2.32332 15.7672 1.51605 12.7756 1.82155C9.78388 2.12705 7.00958 3.52392 4.98258 5.74533C2.95557 7.96674 1.81791 10.857 1.78691 13.8641C1.75591 16.8712 2.83373 19.7843 4.81451 22.047C6.79529 24.3097 9.5402 25.7635 12.5249 26.1306C15.5097 26.4977 18.5251 25.7525 20.9951 24.0372C23.4652 22.3219 25.2168 19.7568 25.9154 16.8318C26.6141 13.9069 26.2107 10.8271 24.7824 8.18067C24.6804 7.97728 24.6615 7.74211 24.73 7.52507C24.7984 7.30802 24.9487 7.12618 25.1489 7.01811C25.3492 6.91004 25.5837 6.88425 25.8027 6.94621C26.0217 7.00818 26.2079 7.15302 26.3219 7.35C27.4719 9.48299 28.0487 11.8779 27.996 14.3006C27.9433 16.7232 27.2628 19.0908 26.0211 21.1717C24.7794 23.2527 23.019 24.9758 20.912 26.1727C18.8049 27.3695 16.4234 27.9992 14.0001 28Z" fill="#333333"/>
    <path d="M23.9872 6.3583C23.8605 6.35842 23.7352 6.33099 23.6201 6.27791C23.5049 6.22483 23.4027 6.14737 23.3205 6.05089L23.163 5.86947C23.0845 5.78379 23.0238 5.68333 22.9846 5.57395C22.9453 5.46458 22.9282 5.34848 22.9343 5.23242C22.9404 5.11637 22.9696 5.0027 23.0201 4.89804C23.0706 4.79338 23.1414 4.69982 23.2285 4.62284C23.3155 4.54586 23.4171 4.48699 23.5271 4.44967C23.6372 4.41235 23.7535 4.39733 23.8695 4.40547C23.9854 4.41362 24.0985 4.44478 24.2023 4.49714C24.306 4.54949 24.3983 4.62198 24.4737 4.71039L24.6528 4.9163C24.761 5.04349 24.8306 5.19899 24.8533 5.36444C24.876 5.52989 24.8508 5.69838 24.7809 5.85C24.7109 6.00162 24.599 6.13005 24.4583 6.22012C24.3177 6.31019 24.1542 6.35814 23.9872 6.3583ZM15.2787 13.125H14.6953V9.11222H15.2787C15.8107 9.11284 16.3207 9.32445 16.6969 9.70064C17.0731 10.0768 17.2847 10.5869 17.2853 11.1189C17.2853 11.351 17.3775 11.5735 17.5416 11.7376C17.7057 11.9017 17.9283 11.9939 18.1603 11.9939C18.3924 11.9939 18.615 11.9017 18.7791 11.7376C18.9431 11.5735 19.0353 11.351 19.0353 11.1189C19.0343 10.1229 18.6381 9.16799 17.9338 8.46372C17.2296 7.75944 16.2747 7.3633 15.2787 7.36222H14.6953V5.4833C14.6953 5.25124 14.6031 5.02868 14.4391 4.86458C14.275 4.70049 14.0524 4.6083 13.8203 4.6083C13.5883 4.6083 13.3657 4.70049 13.2016 4.86458C13.0375 5.02868 12.9453 5.25124 12.9453 5.4833V7.36222H12.362C11.8648 7.35602 11.3713 7.44861 10.9101 7.6346C10.4489 7.8206 10.0292 8.0963 9.67543 8.44573C9.32162 8.79516 9.0407 9.21135 8.84898 9.67018C8.65725 10.129 8.55852 10.6213 8.55852 11.1186C8.55852 11.6159 8.65725 12.1082 8.84898 12.567C9.0407 13.0258 9.32162 13.442 9.67543 13.7915C10.0292 14.1409 10.4489 14.4166 10.9101 14.6026C11.3713 14.7886 11.8648 14.8812 12.362 14.875H12.9453V18.8877H12.362C11.83 18.8871 11.3199 18.6755 10.9438 18.2993C10.5676 17.9231 10.356 17.4131 10.3553 16.8811C10.3553 16.649 10.2631 16.4264 10.0991 16.2623C9.93496 16.0982 9.7124 16.0061 9.48033 16.0061C9.24827 16.0061 9.02571 16.0982 8.86161 16.2623C8.69752 16.4264 8.60533 16.649 8.60533 16.8811C8.60641 17.8771 9.00255 18.8319 9.70683 19.5362C10.4111 20.2405 11.366 20.6366 12.362 20.6377H12.9453V22.5166C12.9453 22.7487 13.0375 22.9713 13.2016 23.1354C13.3657 23.2994 13.5883 23.3916 13.8203 23.3916C14.0524 23.3916 14.275 23.2994 14.4391 23.1354C14.6031 22.9713 14.6953 22.7487 14.6953 22.5166V20.6377H15.2787C15.7759 20.6439 16.2694 20.5513 16.7306 20.3653C17.1918 20.1793 17.6114 19.9036 17.9652 19.5542C18.319 19.2048 18.6 18.7886 18.7917 18.3298C18.9834 17.8709 19.0821 17.3786 19.0821 16.8813C19.0821 16.3841 18.9834 15.8917 18.7917 15.4329C18.6 14.9741 18.319 14.5579 17.9652 14.2085C17.6114 13.8591 17.1918 13.5833 16.7306 13.3974C16.2694 13.2114 15.7759 13.1188 15.2787 13.125ZM12.3579 13.125C12.0916 13.1295 11.827 13.081 11.5796 12.9822C11.3322 12.8834 11.1069 12.7363 10.9169 12.5496C10.727 12.3628 10.5761 12.1401 10.4731 11.8944C10.3701 11.6487 10.317 11.385 10.317 11.1186C10.317 10.8522 10.3701 10.5885 10.4731 10.3428C10.5761 10.0971 10.727 9.87438 10.9169 9.68762C11.1069 9.50086 11.3322 9.3538 11.5796 9.25501C11.827 9.15622 12.0916 9.10768 12.3579 9.11222H12.9412V13.125H12.3579ZM15.2787 18.8877H14.6953V14.875H15.2787C15.545 14.8704 15.8096 14.919 16.057 15.0178C16.3044 15.1165 16.5297 15.2636 16.7197 15.4504C16.9096 15.6371 17.0605 15.8598 17.1635 16.1055C17.2665 16.3512 17.3195 16.6149 17.3195 16.8813C17.3195 17.1477 17.2665 17.4115 17.1635 17.6572C17.0605 17.9028 16.9096 18.1256 16.7197 18.3123C16.5297 18.4991 16.3044 18.6461 16.057 18.7449C15.8096 18.8437 15.545 18.8923 15.2787 18.8877Z" fill="#333333"/>
  </g>
  <defs>
    <clipPath id="clip0_81_8485">
      <rect width="28" height="28" fill="white"/>
    </clipPath>
  </defs>
</svg>