<svg xmlns="http://www.w3.org/2000/svg" width="28" height="28" viewBox="0 0 28 28" fill="none">
  <path d="M13.7812 26.9062C13.593 26.9061 13.4099 26.8454 13.2589 26.733C13.1079 26.6206 12.9971 26.4626 12.943 26.2824L7.693 8.78237C7.64766 8.63104 7.64412 8.47025 7.68277 8.31707C7.72142 8.16388 7.80081 8.02402 7.91252 7.9123C8.02423 7.80059 8.1641 7.7212 8.31728 7.68255C8.47047 7.6439 8.63126 7.64744 8.78259 7.69278L26.2826 12.9428C26.4416 12.9906 26.5838 13.0826 26.6926 13.208C26.8014 13.3335 26.8723 13.4873 26.8971 13.6515C26.9216 13.8158 26.8988 13.9837 26.8315 14.1355C26.7642 14.2873 26.6551 14.4169 26.5169 14.509L22.1552 17.4169L26.6503 21.9124C26.7316 21.9936 26.7961 22.09 26.8401 22.1962C26.8841 22.3023 26.9068 22.4161 26.9068 22.531C26.9068 22.6459 26.8841 22.7597 26.8401 22.8659C26.7961 22.972 26.7316 23.0685 26.6503 23.1497L23.1503 26.6497C23.0691 26.731 22.9727 26.7955 22.8665 26.8395C22.7604 26.8835 22.6466 26.9061 22.5317 26.9061C22.4168 26.9061 22.303 26.8835 22.1968 26.8395C22.0907 26.7955 21.9943 26.731 21.9131 26.6497L17.4175 22.1546L14.5097 26.5162C14.4297 26.6362 14.3214 26.7345 14.1944 26.8026C14.0673 26.8706 13.9254 26.9062 13.7812 26.9062ZM17.2812 19.9062C17.5125 19.9062 17.7349 19.9977 17.8999 20.1626L22.5312 24.794L24.7938 22.5312L20.1626 17.8999C20.071 17.8084 20.0008 17.6977 19.9572 17.5757C19.9136 17.4538 19.8976 17.3237 19.9103 17.1948C19.9231 17.066 19.9643 16.9416 20.031 16.8306C20.0977 16.7196 20.1883 16.6248 20.2961 16.553L23.9986 14.0849L9.83675 9.83631L14.0853 23.9982L16.5535 20.2956C16.6333 20.1758 16.7415 20.0775 16.8685 20.0096C16.9955 19.9416 17.1372 19.9061 17.2812 19.9062ZM5.64987 5.64987C5.73118 5.56867 5.79567 5.47224 5.83968 5.36609C5.88368 5.25994 5.90633 5.14616 5.90633 5.03125C5.90633 4.91634 5.88368 4.80256 5.83968 4.69641C5.79567 4.59026 5.73118 4.49383 5.64987 4.41263L3.89987 2.66263C3.55797 2.32072 3.00431 2.32072 2.66263 2.66263C2.32094 3.00453 2.32072 3.55819 2.66263 3.89987L4.41263 5.64987C4.58347 5.82072 4.80725 5.90625 5.03125 5.90625C5.25525 5.90625 5.47903 5.82072 5.64987 5.64987ZM5.03125 8.53125C5.03125 8.29919 4.93906 8.07663 4.77497 7.91253C4.61087 7.74844 4.38831 7.65625 4.15625 7.65625H1.53125C1.29919 7.65625 1.07663 7.74844 0.912532 7.91253C0.748437 8.07663 0.65625 8.29919 0.65625 8.53125C0.65625 8.76331 0.748437 8.98587 0.912532 9.14997C1.07663 9.31406 1.29919 9.40625 1.53125 9.40625H4.15625C4.38831 9.40625 4.61087 9.31406 4.77497 9.14997C4.93906 8.98587 5.03125 8.76331 5.03125 8.53125ZM3.89987 14.3999L5.64987 12.6499C5.99178 12.308 5.99178 11.7543 5.64987 11.4126C5.30797 11.0709 4.75431 11.0707 4.41263 11.4126L2.66263 13.1626C2.58132 13.2438 2.51683 13.3403 2.47282 13.4464C2.42882 13.5526 2.40616 13.6663 2.40616 13.7812C2.40616 13.8962 2.42882 14.0099 2.47282 14.1161C2.51683 14.2222 2.58132 14.3187 2.66263 14.3999C2.83347 14.5707 3.05725 14.6562 3.28125 14.6562C3.50525 14.6562 3.72903 14.5707 3.89987 14.3999ZM12.6499 5.64987L14.3999 3.89987C14.7418 3.55797 14.7418 3.00431 14.3999 2.66263C14.058 2.32094 13.5043 2.32072 13.1626 2.66263L11.4126 4.41263C11.3313 4.49383 11.2668 4.59026 11.2228 4.69641C11.1788 4.80256 11.1562 4.91634 11.1562 5.03125C11.1562 5.14616 11.1788 5.25994 11.2228 5.36609C11.2668 5.47224 11.3313 5.56867 11.4126 5.64987C11.5835 5.82072 11.8073 5.90625 12.0312 5.90625C12.2552 5.90625 12.479 5.82072 12.6499 5.64987ZM9.40625 4.15625V1.53125C9.40625 1.29919 9.31406 1.07663 9.14997 0.912532C8.98587 0.748437 8.76331 0.65625 8.53125 0.65625C8.29919 0.65625 8.07663 0.748437 7.91253 0.912532C7.74844 1.07663 7.65625 1.29919 7.65625 1.53125V4.15625C7.65625 4.38831 7.74844 4.61087 7.91253 4.77497C8.07663 4.93906 8.29919 5.03125 8.53125 5.03125C8.76331 5.03125 8.98587 4.93906 9.14997 4.77497C9.31406 4.61087 9.40625 4.38831 9.40625 4.15625Z" fill="#333333"/>
</svg>